<svg width="24" height="24" viewBox="0 0 24 24" fill="none" xmlns="http://www.w3.org/2000/svg">
<g id="Monotone/email">
<path id="Vector" d="M3 5.5C3 5.22386 3.22386 5 3.5 5H20.5C20.7761 5 21 5.22386 21 5.5V16.7929C21 16.9255 20.9473 17.0527 20.8536 17.1464L19.1464 18.8536C19.0527 18.9473 18.9255 19 18.7929 19H5.20711C5.0745 19 4.94732 18.9473 4.85355 18.8536L3.14645 17.1464C3.05268 17.0527 3 16.9255 3 16.7929L3 5.5Z" stroke="#AAAAAA" stroke-opacity="0.75" stroke-width="2" stroke-linejoin="round"/>
<path id="Vector_2" d="M20.5 5H3.5C3.22386 5 3 5.22386 3 5.5V7.75C3 7.90738 3.0741 8.05557 3.2 8.15L6.8 10.85C6.9259 10.9444 7 11.0926 7 11.25V12.5C7 12.7761 7.22386 13 7.5 13H12H16.5C16.7761 13 17 12.7761 17 12.5V11.25C17 11.0926 17.0741 10.9444 17.2 10.85L20.8 8.15C20.9259 8.05557 21 7.90738 21 7.75V5.5C21 5.22386 20.7761 5 20.5 5Z" stroke="#AAAAAA" stroke-opacity="0.75" stroke-width="2" stroke-linejoin="round"/>
</g>
</svg>
