<svg width="24" height="24" viewBox="0 0 24 24" fill="none" xmlns="http://www.w3.org/2000/svg">
<g id="Monotone/bell-notification">
<path id="Vector" d="M4 16.2071V17.5C4 17.7761 4.22386 18 4.5 18H19.5C19.7761 18 20 17.7761 20 17.5V16.2071C20 16.0745 19.9473 15.9473 19.8536 15.8536L18.1464 14.1464C18.0527 14.0527 18 13.9255 18 13.7929V8.20711C18 8.0745 17.9473 7.94732 17.8536 7.85355L15.1464 5.14645C15.0527 5.05268 14.9255 5 14.7929 5H9.20711C9.0745 5 8.94732 5.05268 8.85355 5.14645L6.14645 7.85355C6.05268 7.94732 6 8.0745 6 8.20711V13.7929C6 13.9255 5.94732 14.0527 5.85355 14.1464L4.14645 15.8536C4.05268 15.9473 4 16.0745 4 16.2071Z" stroke="#AAAAAA" stroke-width="2" stroke-linejoin="round"/>
<path id="Vector_2" d="M12 5V2" stroke="#AAAAAA" stroke-opacity="0.55" stroke-width="2" stroke-linejoin="round"/>
<path id="Vector_3" d="M7 18V18.7929C7 18.9255 7.05268 19.0527 7.14645 19.1464L8.85355 20.8536C8.94732 20.9473 9.0745 21 9.20711 21H14.7929C14.9255 21 15.0527 20.9473 15.1464 20.8536L16.8536 19.1464C16.9473 19.0527 17 18.9255 17 18.7929V18" stroke="#AAAAAA" stroke-width="2" stroke-linejoin="round"/>
</g>
</svg>
