<svg width="24" height="24" viewBox="0 0 24 24" fill="none" xmlns="http://www.w3.org/2000/svg">
<g id="Monotone/search">
<path id="Vector" d="M20 20L14 14" stroke="#0F0F0F" stroke-opacity="0.33" stroke-linejoin="round"/>
<path id="Vector_2" d="M4.14645 12.1464C4.05268 12.0527 4 11.9255 4 11.7929L4 8.20711C4 8.0745 4.05268 7.94732 4.14645 7.85355L7.85355 4.14645C7.94732 4.05268 8.0745 4 8.20711 4L11.7929 4C11.9255 4 12.0527 4.05268 12.1464 4.14645L15.8536 7.85355C15.9473 7.94732 16 8.0745 16 8.20711V11.7929C16 11.9255 15.9473 12.0527 15.8536 12.1464L12.1464 15.8536C12.0527 15.9473 11.9255 16 11.7929 16H8.20711C8.0745 16 7.94732 15.9473 7.85355 15.8536L4.14645 12.1464Z" stroke="#0F0F0F" stroke-opacity="0.33" stroke-linejoin="round"/>
</g>
</svg>
