<svg width="97" height="89" viewBox="0 0 97 89" fill="none" xmlns="http://www.w3.org/2000/svg">
<path d="M88.867 46.4791H64.5415C63.5471 38.5043 56.7442 32.3333 48.5 32.3333C44.7641 32.3333 41.324 33.6005 38.5865 35.7286L21.3856 18.5277C28.556 12.0369 38.0663 8.08331 48.5 8.08331C70.1438 8.08331 87.8141 25.0964 88.867 46.4791Z" fill="#3188FF"/>
<path d="M52.3062 44.4583H44.6937C44.5637 44.4583 44.4583 44.5637 44.4583 44.6937V52.3062C44.4583 52.4362 44.5637 52.5417 44.6937 52.5417H52.3062C52.4362 52.5417 52.5417 52.4362 52.5417 52.3062V44.6937C52.5417 44.5637 52.4362 44.4583 52.3062 44.4583Z" stroke="white" stroke-width="0.5"/>
<path d="M46.4791 64.5416V88.867C25.0964 87.814 8.08331 70.1438 8.08331 48.4999C8.08331 38.0663 12.0369 28.556 18.5277 21.3855L35.7286 38.5864C33.6005 41.3241 32.3333 44.764 32.3333 48.4999C32.3333 56.7442 38.5043 63.5471 46.4791 64.5416Z" fill="#3188FF"/>
<path d="M88.8671 50.5208H64.5416C63.6297 57.8337 57.8337 63.6297 50.5208 64.5416V88.8671C71.2341 87.8471 87.8471 71.2341 88.8671 50.5208Z" fill="#3188FF"/>
<path d="M52.5417 52.5417L64.5978 64.5978C64.6418 64.6418 64.7017 64.6667 64.7642 64.6667H76.7917" stroke="white" stroke-width="0.5"/>
<path d="M44.4583 52.5417L32.4023 64.5978C32.3582 64.6418 32.2983 64.6667 32.2358 64.6667H20.2083" stroke="white" stroke-width="0.5"/>
<path d="M52.5417 44.4583L64.5978 32.4022C64.6418 32.3582 64.7017 32.3333 64.7642 32.3333H76.7917" stroke="white" stroke-width="0.5"/>
<path d="M35.8843 52.7378V43.245H37.9487V47.012H41.5499V43.245H43.6142V52.7378H41.5499V48.6394H37.9487V52.7378H35.8843ZM45.7138 43.245H49.3151C49.8474 43.245 50.3145 43.3254 50.7164 43.4861C51.1282 43.6368 51.4698 43.8478 51.741 44.119C52.0122 44.3801 52.2131 44.6916 52.3437 45.0532C52.4843 45.4047 52.5547 45.7865 52.5547 46.1984C52.5547 46.58 52.4944 46.9216 52.3739 47.223C52.2634 47.5143 52.1177 47.7704 51.9369 47.9914C51.7662 48.2024 51.5703 48.3832 51.3492 48.5339C51.1383 48.6745 50.9323 48.79 50.7315 48.8804L53.0519 52.7378H50.6863L48.863 49.2421H47.7631V52.7378H45.7138V43.245ZM47.7631 47.6599H48.5767C49.1192 47.6599 49.5611 47.5495 49.9027 47.3285C50.2543 47.1074 50.4301 46.7408 50.4301 46.2285C50.4301 45.7765 50.2895 45.4299 50.0082 45.1888C49.737 44.9376 49.3351 44.8121 48.8028 44.8121H47.7631V47.6599ZM57.3958 43.0793C58.0086 43.0793 58.5511 43.1396 59.0232 43.2601C59.4954 43.3806 59.9173 43.5363 60.2889 43.7272L59.8218 45.2641C59.4099 45.0633 59.0132 44.9126 58.6314 44.8121C58.2497 44.7016 57.878 44.6464 57.5164 44.6464C57.0342 44.6464 56.6575 44.7418 56.3863 44.9326C56.1251 45.1235 55.9945 45.3797 55.9945 45.7011C55.9945 46.0326 56.1101 46.2838 56.3411 46.4545C56.5722 46.6252 56.9438 46.791 57.4561 46.9518L58.3602 47.238C59.1136 47.4892 59.7012 47.8458 60.1231 48.3079C60.5551 48.77 60.7711 49.3375 60.7711 50.0105C60.7711 50.4124 60.6957 50.7891 60.545 51.1406C60.3944 51.4922 60.1683 51.7986 59.867 52.0598C59.5656 52.3209 59.1889 52.5269 58.7369 52.6776C58.2848 52.8283 57.7575 52.9036 57.1547 52.9036C56.0197 52.9036 54.98 52.6726 54.0357 52.2105L54.5028 50.6735C54.9348 50.8845 55.3567 51.0502 55.7685 51.1708C56.1804 51.2812 56.6123 51.3365 57.0643 51.3365C57.5968 51.3365 57.9985 51.2411 58.2698 51.0502C58.541 50.8494 58.6766 50.5731 58.6766 50.2215C58.6766 50.101 58.6516 49.9854 58.6013 49.8749C58.5611 49.7544 58.4807 49.6439 58.3602 49.5434C58.2396 49.433 58.0739 49.3275 57.8629 49.227C57.6621 49.1165 57.3958 49.0111 57.0643 48.9106L56.2657 48.6394C55.9142 48.5188 55.5928 48.3782 55.3014 48.2175C55.0101 48.0567 54.7589 47.8709 54.548 47.6599C54.3471 47.449 54.1864 47.2029 54.0658 46.9216C53.9553 46.6303 53.9001 46.2938 53.9001 45.9121C53.9001 45.5002 53.9754 45.1235 54.1261 44.782C54.2768 44.4304 54.4978 44.1291 54.7891 43.8779C55.0904 43.6267 55.4571 43.4308 55.889 43.2902C56.3311 43.1496 56.8333 43.0793 57.3958 43.0793Z" fill="#002C69"/>
</svg>
